<svg version="1.1" id="Layer_1" xmlns="http://www.w3.org/2000/svg" xmlns:xlink="http://www.w3.org/1999/xlink" x="0px" y="0px"
	 width="100%" viewBox="0 0 256 256" enable-background="new 0 0 256 256" xml:space="preserve">
<path fill="#000000" opacity="1.000000" stroke="none" 
	d="M -1 244 C -1 169.6 -1 95.3 -0.6 20.4 C 1.6 11.4 7.8 7.2 15 4 C 59.7 4 104.4 4 149.6 4.4 C 153.5 6.7 157.2 8.1 160 10.7 C 169.5 19.4 178.7 28.5 188 37.5 C 192.1 41.4 194 46.2 194 51.8 C 194 67.8 194 83.8 194 99.8 C 194 108 194 116.3 194 124.5 C 194.4 124.8 194.8 125.1 195.3 125.4 C 195.9 124.3 196.5 123.1 197.4 122.2 C 203.9 114.6 210.4 107 217 99.5 C 223.9 91.7 236.9 90.8 244.9 96.7 C 249 99.8 251.7 104.8 255 109 C 255 113.4 255 117.7 254.6 122.6 C 253.5 125 253.1 127 252 128.4 C 243.8 138.4 235.6 148.3 227.3 158.2 C 217.5 169.8 207.6 181.2 197.7 192.8 C 195 196 193.7 199.4 193.9 203.9 C 194.3 215.7 194 227.5 194 239.3 C 194 240.9 193.7 242.5 193.4 244.1 C 191.4 252.5 185.3 256.8 178 260 C 124 260 70 260 15.4 259.6 C 6.4 257.4 2.2 251.2 -1 244 M 125.5 245 C 139.5 245 153.5 245.4 167.5 244.9 C 176.9 244.5 178.1 242.9 178.9 233.5 C 179.4 227.5 179 221.5 179 215.4 C 168.6 220 158.5 224.8 148 228.8 C 144.8 230 139.7 229.8 137.2 228 C 135.2 226.6 135.1 221.4 135.6 218.1 C 136.5 211.8 138.3 205.6 140.1 199.4 C 141.6 194.2 142.5 188.4 145.6 184.3 C 154.6 172.3 164.4 160.9 174.2 149.5 C 177.3 145.8 179.2 142.4 179.1 137.3 C 178.9 114.5 179 91.7 179 68.9 C 179 67.3 179 65.7 179 64 C 166.3 64 154.3 64 142.4 64 C 135.8 64 134 62.1 134 55.5 C 134 53.5 134 51.5 134 49.5 C 134 39.4 134 29.3 134 19 C 97.9 19 62.5 18.9 27 19 C 16.6 19.1 14 21.6 14 32 C 14 98.7 14 165.3 14 232 C 14.1 242.4 16.6 244.9 27 245 C 59.5 245.1 92 245 125.5 245 M 188.5 179 C 199.9 165.4 211.3 151.8 222.8 138.1 C 219.4 135.2 215.9 132.2 212.5 129.2 C 199 145.2 185.4 161.2 171.8 177.4 C 175.3 180.5 178.7 183.3 182.2 186.3 C 184.2 183.9 186.1 181.7 188.5 179 M 173.6 46.1 C 165.5 38.5 157.5 30.9 149.3 23.2 C 149.3 32 149.3 40.4 149.3 48.7 C 158.3 48.7 166.9 48.7 176 48.7 C 175.2 47.8 174.6 47.2 173.6 46.1 M 227.6 121 C 229.4 122.4 231.2 123.7 233.1 125.1 C 236.7 122.3 240.2 119.2 238.8 114.2 C 238.2 112.2 235 109 234 109.3 C 230 110.7 226.3 113.3 221.9 115.8 C 224.4 118.1 225.7 119.3 227.6 121 M 159 192.9 C 157.5 197.8 156 202.7 154.4 207.6 C 154.9 207.9 155.4 208.1 155.8 208.4 C 161.3 205.4 166.8 202.4 172.5 199.3 C 168.2 195.7 164.8 192.9 161.5 190.1 C 160.7 190.8 160 191.5 159 192.9 z"/>
<path fill="none" opacity="1.000000" stroke="none" 
	d="M 257 105.5 C 253.7 101.8 251 96.8 246.9 93.7 C 238.9 87.8 225.9 88.7 219 96.5 C 212.4 104 205.9 111.6 199.4 119.2 C 198.5 120.1 197.9 121.3 197.3 122.4 C 196.8 122.1 196.4 121.8 196 121.5 C 196 113.3 196 105 196 96.8 C 196 80.8 196 64.8 196 48.8 C 196 43.2 194.1 38.4 190 34.5 C 180.7 25.5 171.5 16.4 162 7.7 C 159.2 5.1 155.5 3.7 152.1 1.4 C 186.9 1 221.9 1 257 1 C 257 35.7 257 70.4 257 105.5 z"/>
<path fill="none" opacity="1.000000" stroke="none" 
	d="M 180.5 257 C 187.3 253.8 193.4 249.5 195.4 241.1 C 195.7 239.5 196 237.9 196 236.3 C 196 224.5 196.3 212.7 195.9 200.9 C 195.7 196.4 197 193 199.7 189.8 C 209.6 178.2 219.5 166.8 229.3 155.2 C 237.6 145.3 245.8 135.4 254 125.4 C 255.1 124 255.5 122 256.6 120.1 C 257 165.6 257 211.1 257 257 C 231.6 257 206.3 257 180.5 257 z"/>
<path fill="none" opacity="1.000000" stroke="none" 
	d="M 29.5 7 C 22.8 10.2 16.6 14.4 14.4 22.9 C 14 17.7 14 12.5 14 7 C 19 7 24 7 29.5 7 z"/>
<path fill="none" opacity="1.000000" stroke="none" 
	d="M 0 241.5 C 3.5 248.2 7.8 254.4 16.9 256.6 C 11.4 257 5.8 257 0 257 C 0 252 0 247 0 241.5 z"/>
<path fill="#ffffff" opacity="1.000000" stroke="none" 
	d="M 124 241 C 91 241 58.5 241.1 26 241 C 15.6 240.9 13.1 238.4 13 228 C 13 161.3 13 94.7 13 28 C 13 17.6 15.6 15.1 26 15 C 61.5 14.9 96.9 15 133 15 C 133 25.3 133 35.4 133 45.5 C 133 47.5 133 49.5 133 51.5 C 133 58.1 134.8 60 141.4 60 C 153.3 60 165.3 60 178 60 C 178 61.7 178 63.3 178 64.9 C 178 87.7 177.9 110.5 178.1 133.3 C 178.2 138.4 176.3 141.8 173.2 145.5 C 163.4 156.9 153.6 168.3 144.6 180.3 C 141.5 184.4 140.6 190.2 139.1 195.4 C 137.3 201.6 135.5 207.8 134.6 214.1 C 134.1 217.4 134.2 222.6 136.2 224 C 138.7 225.8 143.8 226 147 224.8 C 157.5 220.8 167.6 216 178 211.4 C 178 217.5 178.4 223.5 177.9 229.5 C 177.1 238.9 175.9 240.5 166.5 240.9 C 152.5 241.4 138.5 241 124 241 M 42.6 106 C 51.4 106 60.2 106 69 106 C 97.3 106 125.6 106 153.9 106 C 160 106 163 103.2 163 97.7 C 163 92.7 159.8 90 153.9 90 C 115 90 76 90 37.1 90 C 36.4 90 35.7 89.9 35.1 90 C 30.7 90.4 28 93.6 28 98.3 C 28 102.5 30.9 105.7 35.1 106 C 37.3 106.1 39.4 106 42.6 106 M 98.5 151 C 116.8 151 135.1 151 153.4 151 C 159.9 151 163 148.5 163 143.2 C 163 137.6 160 135 153.4 135 C 114.8 135 76.2 135 37.6 135 C 31.2 135 28 137.5 28 142.8 C 28 148.4 31 151 37.6 151 C 57.6 151 77.5 151 98.5 151 M 81.5 196 C 90.6 196 99.8 196 108.9 196 C 114.8 196 118 193.3 118 188.2 C 118 182.8 115 180 108.9 180 C 85 180 61 180 37.1 180 C 31.2 180 28 182.7 28 187.8 C 28 193.2 31 196 37.1 196 C 51.6 196 66 196 81.5 196 M 61.5 45 C 53.2 45 44.8 45 36.5 45 C 30.2 45 28 46.9 28 52.4 C 28 58 30.1 60 36.3 60 C 60.8 60 85.2 60 109.7 60 C 115.9 60 118 58 118 52.4 C 118 46.9 115.8 45 109.5 45 C 93.8 45 78.2 45 61.5 45 z"/>
<path fill="#ffffff" opacity="1.000000" stroke="none" 
	d="M 190.3 176.2 C 188.1 178.7 186.2 180.9 184.2 183.3 C 180.7 180.3 177.3 177.5 173.8 174.4 C 187.4 158.2 201 142.2 214.5 126.2 C 217.9 129.2 221.4 132.2 224.8 135.1 C 213.3 148.8 201.9 162.4 190.3 176.2 z"/>
<path fill="#ffffff" opacity="1.000000" stroke="none" 
	d="M 175.8 43.3 C 176.6 44.2 177.2 44.8 178 45.7 C 168.9 45.7 160.3 45.7 151.3 45.7 C 151.3 37.4 151.3 29 151.3 20.2 C 159.5 27.9 167.5 35.5 175.8 43.3 z"/>
<path fill="#ffffff" opacity="1.000000" stroke="none" 
	d="M 229.3 117.8 C 227.7 116.3 226.4 115.1 223.9 112.8 C 228.3 110.3 232 107.7 236 106.3 C 237 106 240.2 109.2 240.8 111.2 C 242.2 116.2 238.7 119.3 235.1 122.1 C 233.2 120.7 231.4 119.4 229.3 117.8 z"/>
<path fill="#ffffff" opacity="1.000000" stroke="none" 
	d="M 161.2 189.5 C 162 188.5 162.7 187.8 163.5 187.1 C 166.8 189.9 170.2 192.7 174.5 196.3 C 168.8 199.4 163.3 202.4 157.8 205.4 C 157.4 205.1 156.9 204.9 156.4 204.6 C 158 199.7 159.5 194.8 161.2 189.5 z"/>
<path fill="#000000" opacity="1.000000" stroke="none" 
	d="M 45.1 107 C 42.4 107 40.3 107.1 38.1 107 C 33.9 106.7 31 103.5 31 99.3 C 31 94.6 33.7 91.4 38.1 91 C 38.7 90.9 39.4 91 40.1 91 C 79 91 118 91 156.9 91 C 162.8 91 166 93.7 166 98.7 C 166 104.2 163 107 156.9 107 C 128.6 107 100.3 107 72 107 C 63.2 107 54.4 107 45.1 107 z"/>
<path fill="#000000" opacity="1.000000" stroke="none" 
	d="M 101 152 C 80.5 152 60.6 152 40.6 152 C 34 152 31 149.4 31 143.8 C 31 138.5 34.2 136 40.6 136 C 79.2 136 117.8 136 156.4 136 C 163 136 166 138.6 166 144.2 C 166 149.5 162.9 152 156.4 152 C 138.1 152 119.8 152 101 152 z"/>
<path fill="#000000" opacity="1.000000" stroke="none" 
	d="M 84 197 C 69 197 54.6 197 40.1 197 C 34 197 31 194.2 31 188.8 C 31 183.7 34.2 181 40.1 181 C 64 181 88 181 111.9 181 C 118 181 121 183.8 121 189.2 C 121 194.3 117.8 197 111.9 197 C 102.8 197 93.6 197 84 197 z"/>
<path fill="#000000" opacity="1.000000" stroke="none" 
	d="M 65 46 C 81.2 46 96.8 46 112.5 46 C 118.8 46 121 47.9 121 53.4 C 121 59 118.9 61 112.7 61 C 88.2 61 63.8 61 39.3 61 C 33.1 61 31 59 31 53.4 C 31 47.9 33.2 46 39.5 46 C 47.8 46 56.2 46 65 46 z"/>
</svg>